{"accessors":[{"bufferView":2,"componentType":5126,"count":5077,"max":[0.9959205389022827,1.6957290172576904,3.6990838050842285],"min":[-1.061083197593689,-1.6191693544387817,1.2268933057785034],"type":"VEC3"},{"bufferView":2,"byteOffset":60924,"componentType":5126,"count":5077,"max":[1,1,1],"min":[-1,-1,-1],"type":"VEC3"},{"bufferView":1,"componentType":5126,"count":5077,"max":[1,1.0000001192092896],"min":[0,0],"type":"VEC2"},{"bufferView":1,"byteOffset":40616,"componentType":5126,"count":5077,"max":[0.6678358912467957,0.5670908689498901],"min":[0,0],"type":"VEC2"},{"bufferView":0,"componentType":5125,"count":21930,"type":"SCALAR"},{"bufferView":2,"byteOffset":121848,"componentType":5126,"count":325,"max":[0.3948908746242523,1.6959482431411743,3.536485195159912],"min":[-0.8468481302261353,-0.44180577993392944,2.0280447006225586],"type":"VEC3"},{"bufferView":2,"byteOffset":125748,"componentType":5126,"count":325,"max":[0.9934677481651306,0.9999687671661377,0.962613582611084],"min":[-0.9934676885604858,-0.9996296167373657,-0.8174823522567749],"type":"VEC3"},{"bufferView":1,"byteOffset":81232,"componentType":5126,"count":325,"max":[0.752130389213562,0.9901717901229858],"min":[0.08900141716003418,0.08900144696235657],"type":"VEC2"},{"bufferView":1,"byteOffset":83832,"componentType":5126,"count":325,"max":[0,0],"min":[0,0],"type":"VEC2"},{"bufferView":0,"byteOffset":87720,"componentType":5125,"count":1392,"type":"SCALAR"},{"bufferView":2,"byteOffset":129648,"componentType":5126,"count":9832,"max":[1.0459929704666138,1.668919563293457,3.6857457160949707],"min":[-1.5679982900619507,-1.7939876317977905,0.07164585590362549],"type":"VEC3"},{"bufferView":2,"byteOffset":247632,"componentType":5126,"count":9832,"max":[0.9998842477798462,0.9999856948852539,0.999988853931427],"min":[-0.9998841881752014,-0.9998910427093506,-1],"type":"VEC3"},{"bufferView":1,"byteOffset":86432,"componentType":5126,"count":9832,"max":[1,1],"min":[-8.940696716308594e-8,0],"type":"VEC2"},{"bufferView":1,"byteOffset":165088,"componentType":5126,"count":9832,"max":[0.6685571074485779,0.6454776525497437],"min":[0,0],"type":"VEC2"},{"bufferView":0,"byteOffset":93288,"componentType":5125,"count":46698,"type":"SCALAR"},{"bufferView":2,"byteOffset":365616,"componentType":5126,"count":10647,"max":[1.0895429849624634,1.3949134349822998,3.403289318084717],"min":[-1.5660314559936523,-1.6061869859695435,-0.0066825151443481445],"type":"VEC3"},{"bufferView":2,"byteOffset":493380,"componentType":5126,"count":10647,"max":[1,1,1],"min":[-1,-1,-1],"type":"VEC3"},{"bufferView":1,"byteOffset":243744,"componentType":5126,"count":10647,"max":[1.0000001192092896,1],"min":[0,0],"type":"VEC2"},{"bufferView":1,"byteOffset":328920,"componentType":5126,"count":10647,"max":[0,0],"min":[0,0],"type":"VEC2"},{"bufferView":0,"byteOffset":280080,"componentType":5125,"count":45276,"type":"SCALAR"},{"bufferView":2,"byteOffset":621144,"componentType":5126,"count":812,"max":[0.7189623117446899,0.7988179922103882,2.9468576908111572],"min":[-0.7189623117446899,-1.0171059370040894,0.1908046007156372],"type":"VEC3"},{"bufferView":2,"byteOffset":630888,"componentType":5126,"count":812,"max":[0.9999343156814575,0.9965620040893555,0.9997416138648987],"min":[-0.9999343752861023,-0.9988198280334473,-1],"type":"VEC3"},{"bufferView":1,"byteOffset":414096,"componentType":5126,"count":812,"max":[0.7923584580421448,0.875],"min":[0.25,0.375],"type":"VEC2"},{"bufferView":1,"byteOffset":420592,"componentType":5126,"count":812,"max":[0,0],"min":[0,0],"type":"VEC2"},{"bufferView":0,"byteOffset":461184,"componentType":5125,"count":2958,"type":"SCALAR"},{"bufferView":2,"byteOffset":640632,"componentType":5126,"count":758,"max":[0.6849443912506104,1.1451380252838135,2.5384557247161865],"min":[-0.6849443912506104,-1.7211021184921265,0.6079758405685425],"type":"VEC3"},{"bufferView":2,"byteOffset":649728,"componentType":5126,"count":758,"max":[1,0.9471555352210999,0.9985570311546326],"min":[-1,-1,-1],"type":"VEC3"},{"bufferView":1,"byteOffset":427088,"componentType":5126,"count":758,"max":[1,1.0000001192092896],"min":[0,0.01000000536441803],"type":"VEC2"},{"bufferView":1,"byteOffset":433152,"componentType":5126,"count":758,"max":[0,0],"min":[0,0],"type":"VEC2"},{"bufferView":0,"byteOffset":473016,"componentType":5125,"count":3144,"type":"SCALAR"}],"asset":{"extras":{"author":"elkarimeldino (https://sketchfab.com/elkarimeldino)","license":"CC-BY-4.0 (http://creativecommons.org/licenses/by/4.0/)","source":"https://sketchfab.com/3d-models/cats-on-the-run-dabea72faa62434baa27c3457a1ecc97","title":"Cats on the run"},"generator":"Sketchfab-11.90.0","version":"2.0"},"bufferViews":[{"buffer":0,"byteLength":485592,"name":"floatBufferViews","target":34963},{"buffer":0,"byteLength":439216,"byteOffset":485592,"byteStride":8,"name":"floatBufferViews","target":34962},{"buffer":0,"byteLength":658824,"byteOffset":924808,"byteStride":12,"name":"floatBufferViews","target":34962}],"buffers":[{"byteLength":1583632,"uri":"data:application/octet-stream;base64,"}],"materials":[{"doubleSided":true,"name":"dark","pbrMetallicRoughness":{"baseColorFactor":[0.054969,0.054969,0.054969,1],"metallicFactor":0}},{"doubleSided":true,"name":"glass","pbrMetallicRoughness":{"baseColorFactor":[0.3054822061,0.8597910592,1,1],"metallicFactor":0,"roughnessFactor":0.3537771223}},{"doubleSided":true,"name":"light","pbrMetallicRoughness":{"baseColorFactor":[0.178862,0.143876,0.152742,1],"metallicFactor":0,"roughnessFactor":0.5911651239}},{"doubleSided":true,"name":"darker","pbrMetallicRoughness":{"baseColorFactor":[0.020379,0.020379,0.020379,1],"metallicFactor":0}},{"doubleSided":true,"name":"llighter","pbrMetallicRoughness":{"baseColorFactor":[0.226584,0.226584,0.226584,1],"metallicFactor":0,"roughnessFactor":0.8042056381}},{"doubleSided":true,"emissiveFactor":[1,1,0.48878523220512604],"name":"bright","pbrMetallicRoughness":{"baseColorFactor":[0.8,0.728426,0.182055,1],"metallicFactor":0,"roughnessFactor":0.27464778850000005}}],"meshes":[{"name":"Cats on the run_dark_0","primitives":[{"attributes":{"NORMAL":1,"POSITION":0,"TEXCOORD_0":2,"TEXCOORD_1":3},"indices":4,"material":0,"mode":4}]},{"name":"Cats on the run_glass_0","primitives":[{"attributes":{"NORMAL":6,"POSITION":5,"TEXCOORD_0":7,"TEXCOORD_1":8},"indices":9,"material":1,"mode":4}]},{"name":"Cats on the run_light_0","primitives":[{"attributes":{"NORMAL":11,"POSITION":10,"TEXCOORD_0":12,"TEXCOORD_1":13},"indices":14,"material":2,"mode":4}]},{"name":"Cats on the run_darker_0","primitives":[{"attributes":{"NORMAL":16,"POSITION":15,"TEXCOORD_0":17,"TEXCOORD_1":18},"indices":19,"material":3,"mode":4}]},{"name":"Cats on the run_llighter_0","primitives":[{"attributes":{"NORMAL":21,"POSITION":20,"TEXCOORD_0":22,"TEXCOORD_1":23},"indices":24,"material":4,"mode":4}]},{"name":"Cats on the run_bright_0","primitives":[{"attributes":{"NORMAL":26,"POSITION":25,"TEXCOORD_0":27,"TEXCOORD_1":28},"indices":29,"material":5,"mode":4}]}],"nodes":[{"children":[1],"matrix":[1,0,0,0,0,2.220446049250313e-16,-1,0,0,1,2.220446049250313e-16,0,0,-3.0399998962593586e-8,-5.029999883277015e-8,1],"name":"Sketchfab_model"},{"children":[2],"matrix":[0.009999999776482582,0,0,0,0,0,0.009999999776482582,0,0,-0.009999999776482582,0,0,0,0,0,1],"name":"c1a704c044f44f17b328622ae6af0bf6.fbx"},{"children":[3],"name":"RootNode"},{"children":[4,5,6,7,8,9],"matrix":[100,0,0,0,0,-0.00001629206793918314,-99.99999999999868,0,0,99.99999999999868,-0.00001629206793918314,0,0,0,0,1],"name":"Cats on the run"},{"mesh":0,"name":"Cats on the run_dark_0"},{"mesh":1,"name":"Cats on the run_glass_0"},{"mesh":2,"name":"Cats on the run_light_0"},{"mesh":3,"name":"Cats on the run_darker_0"},{"mesh":4,"name":"Cats on the run_llighter_0"},{"mesh":5,"name":"Cats on the run_bright_0"}],"scene":0,"scenes":[{"name":"Sketchfab_Scene","nodes":[0]}]}